<?xml version="1.0" encoding="utf-8"?>
<!-- Generator: Adobe Illustrator 19.1.1, SVG Export Plug-In . SVG Version: 6.00 Build 0)  -->
<svg version="1.1" id="Layer_1" xmlns="http://www.w3.org/2000/svg" xmlns:xlink="http://www.w3.org/1999/xlink" x="0px" y="0px"
	 viewBox="526 -82 1664 957" style="enable-background:new 526 -82 1664 957;" xml:space="preserve">
<style type="text/css">
	.st0{clip-path:url(#SVGID_2_);fill:#FFFFFF;}
	.st1{fill:#FFFFFF;}
	.st2{fill:none;stroke:#262626;stroke-width:0.6667;stroke-linecap:square;stroke-linejoin:round;stroke-miterlimit:10;}
	.st3{fill:#262626;}
	.st4{font-family:'Arial-BoldMT';}
	.st5{font-size:24px;}
	.st6{fill:none;stroke:#262626;stroke-width:0.6667;stroke-linejoin:round;stroke-miterlimit:10;}
	.st7{fill:#352A86;}
	.st8{fill:none;stroke:#000000;stroke-width:0.6667;stroke-miterlimit:10;}
</style>
<g>
	<g>
		<g>
			<defs>
				<rect id="SVGID_1_" x="526" y="-82" width="1467.2" height="843.8"/>
			</defs>
			<clipPath id="SVGID_2_">
				<use xlink:href="#SVGID_1_"  style="overflow:visible;"/>
			</clipPath>
			<rect x="526" y="-82" class="st0" width="1467.2" height="843.8"/>
		</g>
	</g>
	<g>
		<rect x="526" y="-82" class="st1" width="1467.2" height="843.8"/>
		<path class="st1" d="M941.3,669.2H1629V-18.5H941.3V669.2z"/>
	</g>
	<g>
		<line class="st2" x1="941.3" y1="669.2" x2="1629" y2="669.2"/>
		<line class="st2" x1="941.3" y1="-18.5" x2="1629" y2="-18.5"/>
		<line class="st2" x1="987.1" y1="669.2" x2="987.1" y2="662.3"/>
		<line class="st2" x1="1033" y1="669.2" x2="1033" y2="662.3"/>
		<line class="st2" x1="1078.8" y1="669.2" x2="1078.8" y2="662.3"/>
		<line class="st2" x1="1124.7" y1="669.2" x2="1124.7" y2="662.3"/>
		<line class="st2" x1="1170.5" y1="669.2" x2="1170.5" y2="662.3"/>
		<line class="st2" x1="1216.4" y1="669.2" x2="1216.4" y2="662.3"/>
		<line class="st2" x1="1262.2" y1="669.2" x2="1262.2" y2="662.3"/>
		<line class="st2" x1="1308.1" y1="669.2" x2="1308.1" y2="662.3"/>
		<line class="st2" x1="1353.9" y1="669.2" x2="1353.9" y2="662.3"/>
		<line class="st2" x1="1399.8" y1="669.2" x2="1399.8" y2="662.3"/>
		<line class="st2" x1="1445.6" y1="669.2" x2="1445.6" y2="662.3"/>
		<line class="st2" x1="1491.5" y1="669.2" x2="1491.5" y2="662.3"/>
		<line class="st2" x1="1537.3" y1="669.2" x2="1537.3" y2="662.3"/>
		<line class="st2" x1="1583.2" y1="669.2" x2="1583.2" y2="662.3"/>
		<line class="st2" x1="987.1" y1="-18.5" x2="987.1" y2="-11.6"/>
		<line class="st2" x1="1033" y1="-18.5" x2="1033" y2="-11.6"/>
		<line class="st2" x1="1078.8" y1="-18.5" x2="1078.8" y2="-11.6"/>
		<line class="st2" x1="1124.7" y1="-18.5" x2="1124.7" y2="-11.6"/>
		<line class="st2" x1="1170.5" y1="-18.5" x2="1170.5" y2="-11.6"/>
		<line class="st2" x1="1216.4" y1="-18.5" x2="1216.4" y2="-11.6"/>
		<line class="st2" x1="1262.2" y1="-18.5" x2="1262.2" y2="-11.6"/>
		<line class="st2" x1="1308.1" y1="-18.5" x2="1308.1" y2="-11.6"/>
		<line class="st2" x1="1353.9" y1="-18.5" x2="1353.9" y2="-11.6"/>
		<line class="st2" x1="1399.8" y1="-18.5" x2="1399.8" y2="-11.6"/>
		<line class="st2" x1="1445.6" y1="-18.5" x2="1445.6" y2="-11.6"/>
		<line class="st2" x1="1491.5" y1="-18.5" x2="1491.5" y2="-11.6"/>
		<line class="st2" x1="1537.3" y1="-18.5" x2="1537.3" y2="-11.6"/>
		<line class="st2" x1="1583.2" y1="-18.5" x2="1583.2" y2="-11.6"/>
	</g>
	<g transform="translate(523,859.4667)">
		<text transform="matrix(0.7071 -0.7071 0.7071 0.7071 410.2683 -107.2688)" class="st3 st4 st5">cd3cd28</text>
	</g>
	<g transform="translate(575,859.4667)">
		<text transform="matrix(0.7071 -0.7071 0.7071 0.7071 354.1632 -59.1497)" class="st3 st4 st5">cd3cd28icam2</text>
	</g>
	<g transform="translate(627,859.4667)">
		<text transform="matrix(0.7071 -0.7071 0.7071 0.7071 322.945 -32.3014)" class="st3 st4 st5">cd3cd28+aktinhib</text>
	</g>
	<g transform="translate(679,859.4667)">
		<text transform="matrix(0.7071 -0.7071 0.7071 0.7071 333.9838 -49.2393)" class="st3 st4 st5">cd3cd28+g0076</text>
	</g>
	<g transform="translate(731,859.4667)">
		<text transform="matrix(0.7071 -0.7071 0.7071 0.7071 318.3415 -42.6595)" class="st3 st4 st5">cd3cd28+psitect</text>
	</g>
	<g transform="translate(783,859.4667)">
		<text transform="matrix(0.7071 -0.7071 0.7071 0.7071 322.6574 -49.2384)" class="st3 st4 st5">cd3cd28+u0126</text>
	</g>
	<g transform="translate(835,859.4667)">
		<text transform="matrix(0.7071 -0.7071 0.7071 0.7071 342.253 -78.489)" class="st3 st4 st5"> cd3cd28+ly</text>
	</g>
	<g transform="translate(887,859.4667)">
		<text transform="matrix(0.7071 -0.7071 0.7071 0.7071 388.5969 -140.2997)" class="st3 st4 st5">pma</text>
	</g>
	<g transform="translate(939,859.4667)">
		<text transform="matrix(0.7071 -0.7071 0.7071 0.7071 356.3784 -106.3401)" class="st3 st4 st5"> b2camp</text>
	</g>
	<g transform="translate(991,859.4667)">
		<text transform="matrix(0.7071 -0.7071 0.7071 0.7071 227.5705 20.5329)" class="st3 st4 st5"> cd3cd28icam2+aktinhib</text>
	</g>
	<g transform="translate(1043,859.4667)">
		<text transform="matrix(0.7071 -0.7071 0.7071 0.7071 246.8512 -1.1201)" class="st3 st4 st5">cd3cd28icam2+g0076</text>
	</g>
	<g transform="translate(1095,859.4667)">
		<text transform="matrix(0.7071 -0.7071 0.7071 0.7071 252.4806 -19.0677)" class="st3 st4 st5">cd3cd28icam2+psit</text>
	</g>
	<g transform="translate(1147,859.4667)">
		<text transform="matrix(0.7071 -0.7071 0.7071 0.7071 236.0478 -1.1199)" class="st3 st4 st5">cd3cd28icam2+u0126</text>
	</g>
	<g transform="translate(1199,859.4667)">
		<text transform="matrix(0.7071 -0.7071 0.7071 0.7071 261.2866 -35.0857)" class="st3 st4 st5">cd3cd28icam2+ly</text>
	</g>
	<g>
		<line class="st2" x1="941.3" y1="669.2" x2="941.3" y2="-18.5"/>
		<line class="st2" x1="1629" y1="669.2" x2="1629" y2="-18.5"/>
		<line class="st2" x1="941.3" y1="669.2" x2="948.2" y2="669.2"/>
		<line class="st2" x1="941.3" y1="600.4" x2="948.2" y2="600.4"/>
		<line class="st2" x1="941.3" y1="531.7" x2="948.2" y2="531.7"/>
		<line class="st2" x1="941.3" y1="462.9" x2="948.2" y2="462.9"/>
		<line class="st2" x1="941.3" y1="394.1" x2="948.2" y2="394.1"/>
		<line class="st2" x1="941.3" y1="325.4" x2="948.2" y2="325.4"/>
		<line class="st2" x1="941.3" y1="256.6" x2="948.2" y2="256.6"/>
		<line class="st2" x1="941.3" y1="187.8" x2="948.2" y2="187.8"/>
		<line class="st2" x1="941.3" y1="119" x2="948.2" y2="119"/>
		<line class="st2" x1="941.3" y1="50.3" x2="948.2" y2="50.3"/>
		<line class="st2" x1="941.3" y1="-18.5" x2="948.2" y2="-18.5"/>
		<line class="st2" x1="1629" y1="669.2" x2="1622.2" y2="669.2"/>
		<line class="st2" x1="1629" y1="600.4" x2="1622.2" y2="600.4"/>
		<line class="st2" x1="1629" y1="531.7" x2="1622.2" y2="531.7"/>
		<line class="st2" x1="1629" y1="462.9" x2="1622.2" y2="462.9"/>
		<line class="st2" x1="1629" y1="394.1" x2="1622.2" y2="394.1"/>
		<line class="st2" x1="1629" y1="325.4" x2="1622.2" y2="325.4"/>
		<line class="st2" x1="1629" y1="256.6" x2="1622.2" y2="256.6"/>
		<line class="st2" x1="1629" y1="187.8" x2="1622.2" y2="187.8"/>
		<line class="st2" x1="1629" y1="119" x2="1622.2" y2="119"/>
		<line class="st2" x1="1629" y1="50.3" x2="1622.2" y2="50.3"/>
		<line class="st2" x1="1629" y1="-18.5" x2="1622.2" y2="-18.5"/>
	</g>
	<g transform="translate(463.5333,852)">
		<text transform="matrix(1 0 0 1 458.8275 -174.4004)" class="st3 st4 st5">0</text>
	</g>
	<g transform="translate(463.5333,774)">
		<text transform="matrix(1 0 0 1 447.3651 -165.1748)" class="st3 st4 st5">10</text>
	</g>
	<g transform="translate(463.5333,696)">
		<text transform="matrix(1 0 0 1 447.3651 -155.9482)" class="st3 st4 st5">20</text>
	</g>
	<g transform="translate(463.5333,618)">
		<text transform="matrix(1 0 0 1 447.3651 -146.7226)" class="st3 st4 st5">30</text>
	</g>
	<g transform="translate(463.5333,540)">
		<text transform="matrix(1 0 0 1 447.3651 -137.4961)" class="st3 st4 st5">40</text>
	</g>
	<g transform="translate(463.5333,462)">
		<text transform="matrix(1 0 0 1 447.3651 -128.2705)" class="st3 st4 st5">50</text>
	</g>
	<g transform="translate(463.5333,384)">
		<text transform="matrix(1 0 0 1 447.3651 -119.0444)" class="st3 st4 st5">60</text>
	</g>
	<g transform="translate(463.5333,306)">
		<text transform="matrix(1 0 0 1 447.3651 -109.8184)" class="st3 st4 st5">70</text>
	</g>
	<g transform="translate(463.5333,228)">
		<text transform="matrix(1 0 0 1 447.3651 -100.5923)" class="st3 st4 st5">80</text>
	</g>
	<g transform="translate(463.5333,150)">
		<text transform="matrix(1 0 0 1 447.3651 -91.3662)" class="st3 st4 st5">90</text>
	</g>
	<g transform="translate(463.5333,72)">
		<text transform="matrix(1 0 0 1 435.0214 -82.1401)" class="st3 st4 st5">100</text>
	</g>
	<g transform="translate(418.5333,461.9996) rotate(-90)">
		<text transform="matrix(1 0 0 1 63.0221 471.2045)" class="st3 st4 st5">accuracy (%)</text>
	</g>
	<g>
		<line class="st6" x1="941.3" y1="669.2" x2="1629" y2="669.2"/>
	</g>
	<g>
		<path class="st7" d="M968.8,669.2h36.7V344.6h-36.7V669.2z"/>
		<path class="st7" d="M1014.6,669.2h36.7V273.4h-36.7V669.2z"/>
		<path class="st7" d="M1060.5,669.2h36.7V135.7h-36.7V669.2z"/>
		<path class="st7" d="M1106.3,669.2h36.7V6.4h-36.7V669.2z"/>
		<path class="st7" d="M1152.2,669.2h36.7V87.3h-36.7V669.2z"/>
		<path class="st7" d="M1198,669.2h36.7V69H1198V669.2z"/>
		<path class="st7" d="M1243.9,669.2h36.7V469.6h-36.7V669.2z"/>
		<path class="st7" d="M1289.7,669.2h36.7V257.4h-36.7V669.2z"/>
		<path class="st7" d="M1335.6,669.2h36.7V159.8h-36.7V669.2z"/>
		<path class="st7" d="M1381.4,669.2h36.7V374.5h-36.7V669.2z"/>
		<path class="st7" d="M1427.3,669.2h36.7V5.5h-36.7V669.2z"/>
		<path class="st7" d="M1473.1,669.2h36.7V195.1h-36.7V669.2z"/>
		<path class="st7" d="M1519,669.2h36.7V301.5H1519V669.2z"/>
		<path class="st7" d="M1564.8,669.2h36.7V397h-36.7V669.2z"/>
	</g>
	<g>
		<path class="st8" d="M968.8,669.2V344.6h36.7v324.6H968.8z"/>
		<path class="st8" d="M1014.6,669.2V273.4h36.7v395.9H1014.6z"/>
		<path class="st8" d="M1060.5,669.2V135.7h36.7v533.5H1060.5z"/>
		<path class="st8" d="M1106.3,669.2V6.4h36.7v662.8H1106.3z"/>
		<path class="st8" d="M1152.2,669.2V87.3h36.7v581.9H1152.2z"/>
		<path class="st8" d="M1198,669.2V69h36.7v600.2H1198z"/>
		<path class="st8" d="M1243.9,669.2V469.6h36.7v199.7H1243.9z"/>
		<path class="st8" d="M1289.7,669.2V257.4h36.7v411.8H1289.7z"/>
		<path class="st8" d="M1335.6,669.2V159.8h36.7v509.4H1335.6z"/>
		<path class="st8" d="M1381.4,669.2V374.5h36.7v294.7H1381.4z"/>
		<path class="st8" d="M1427.3,669.2V5.5h36.7v663.7H1427.3z"/>
		<path class="st8" d="M1473.1,669.2V195.1h36.7v474.2H1473.1z"/>
		<path class="st8" d="M1519,669.2V301.5h36.7v367.7H1519z"/>
		<path class="st8" d="M1564.8,669.2V397h36.7v272.2H1564.8z"/>
	</g>
</g>
</svg>
